<svg xmlns="http://www.w3.org/2000/svg" xmlns:xlink="http://www.w3.org/1999/xlink" viewBox="0 0 260 260"><defs><style>.cls-1{isolation:isolate;}.cls-2,.cls-8{fill:#dac2a9;}.cls-3{fill:#d5871f;}.cls-4{fill:#d59c1f;}.cls-5{fill:#eaa90d;}.cls-6{fill:#ffd53c;}.cls-7{fill:#fdc010;}.cls-8,.cls-9{opacity:0.6;}.cls-17,.cls-18,.cls-23,.cls-26,.cls-59,.cls-8,.cls-84,.cls-91{mix-blend-mode:multiply;}.cls-9{fill:#f9eeeb;}.cls-10{fill:#ab2514;}.cls-11{fill:#486800;}.cls-12{fill:url(#linear-gradient);}.cls-13{fill:#ea3e22;}.cls-14,.cls-22,.cls-24,.cls-49{fill:#fff;}.cls-14,.cls-17,.cls-67{opacity:0.1;}.cls-15{fill:#ffc7b2;}.cls-16{fill:url(#linear-gradient-2);}.cls-17,.cls-18,.cls-23{fill:#ac9d8c;}.cls-18,.cls-26,.cls-83,.cls-91{opacity:0.3;}.cls-19{fill:#71c7e0;}.cls-20{fill:#62b9e0;}.cls-21{fill:#a0deed;}.cls-100,.cls-126,.cls-22,.cls-78,.cls-90,.cls-98{opacity:0.5;}.cls-112,.cls-23,.cls-49,.cls-58,.cls-62,.cls-64,.cls-69,.cls-70{opacity:0.2;}.cls-25,.cls-26{fill:#38563e;}.cls-27{fill:#3f643d;}.cls-28{fill:#355734;}.cls-29{fill:#4f734a;}.cls-30{fill:url(#linear-gradient-3);}.cls-31{fill:#e8d9dc;}.cls-32{fill:url(#linear-gradient-4);}.cls-33{fill:#ddc3b7;}.cls-34{fill:url(#linear-gradient-5);}.cls-35{fill:#b12025;}.cls-36{fill:#c96367;}.cls-37{fill:#c14d51;}.cls-38{fill:#b9373b;}.cls-39{fill:url(#linear-gradient-6);}.cls-40{fill:#ce2025;}.cls-41{fill:url(#linear-gradient-7);}.cls-42{fill:url(#linear-gradient-8);}.cls-43{fill:url(#linear-gradient-9);}.cls-44{fill:url(#linear-gradient-10);}.cls-45{fill:url(#linear-gradient-11);}.cls-46{fill:#d97779;}.cls-47{fill:url(#linear-gradient-12);}.cls-48{fill:url(#linear-gradient-13);}.cls-50{fill:#d45459;}.cls-51{fill:#d3373b;}.cls-52{fill:#75283e;}.cls-52,.cls-55{opacity:0.3;}.cls-53{fill:#e7b72e;}.cls-54{fill:#ffd354;}.cls-55{fill:#734227;}.cls-56{fill:#ecdacf;}.cls-57{fill:#f3bc63;}.cls-58{fill:#cb6d00;}.cls-59{fill:#cebdb1;opacity:0.9;}.cls-60{fill:url(#linear-gradient-14);}.cls-61{fill:#e8e3d2;}.cls-62{fill:#ffddad;mix-blend-mode:overlay;}.cls-63{fill:#ffddac;}.cls-64{fill:#875e42;}.cls-65{fill:#8a5c53;}.cls-66{fill:url(#radial-gradient);}.cls-68,.cls-69{fill:#968022;}.cls-70,.cls-75{fill:#4c682b;}.cls-71{fill:url(#linear-gradient-15);}.cls-72{fill:#905814;}.cls-73{fill:#cda548;}.cls-74{fill:#528431;}.cls-76{fill:#a39c27;}.cls-77{fill:#a19a22;}.cls-78{fill:#e1e56e;}.cls-79{fill:#b8b027;}.cls-80{fill:#f1ee9d;}.cls-81{fill:#89b352;}.cls-82{fill:url(#linear-gradient-16);}.cls-83,.cls-87{fill:#d59c86;}.cls-84,.cls-91{fill:#c49c86;}.cls-116,.cls-125,.cls-84{opacity:0.7;}.cls-85,.cls-90{fill:#be9f97;}.cls-86{fill:url(#linear-gradient-17);}.cls-88,.cls-98{fill:#4a281b;}.cls-89{fill:#f2e1e2;}.cls-92{fill:#dec0c9;}.cls-93{fill:url(#linear-gradient-18);}.cls-94{fill:url(#linear-gradient-19);}.cls-95{fill:url(#linear-gradient-20);}.cls-96{fill:url(#linear-gradient-21);}.cls-97{fill:url(#linear-gradient-22);}.cls-99{fill:url(#linear-gradient-23);}.cls-100{fill:url(#linear-gradient-24);}.cls-101{fill:#fb951b;}.cls-102{fill:url(#linear-gradient-25);}.cls-103{fill:url(#linear-gradient-26);}.cls-104{fill:url(#linear-gradient-27);}.cls-105{fill:#84a54d;}.cls-106{fill:#fb941b;}.cls-107{fill:#e15700;}.cls-108{fill:url(#linear-gradient-28);}.cls-109{fill:#ad8c70;}.cls-110{fill:url(#linear-gradient-29);}.cls-111{fill:#b64161;opacity:0.8;}.cls-112{fill:#db6e7f;}.cls-113{fill:#993646;}.cls-114{fill:#cc6077;}.cls-115{fill:#cd8095;}.cls-116{fill:#72162f;}.cls-117{fill:#bfb6a6;}.cls-118{fill:#d9cebc;}.cls-119{fill:#baac95;}.cls-120{fill:url(#linear-gradient-30);}.cls-121{fill:url(#linear-gradient-31);}.cls-122{fill:url(#linear-gradient-32);}.cls-123{fill:url(#linear-gradient-33);}.cls-124{fill:url(#linear-gradient-34);}.cls-125,.cls-126{fill:none;stroke:#fff;stroke-linecap:round;stroke-miterlimit:10;stroke-width:2.5px;}</style><linearGradient id="linear-gradient" x1="199.18" y1="442.97" x2="200.36" y2="432.77" gradientTransform="translate(136.23 -271.66) rotate(16.74)" gradientUnits="userSpaceOnUse"><stop offset="0" stop-color="#517b00"/><stop offset="1" stop-color="#b6ba84"/></linearGradient><linearGradient id="linear-gradient-2" x1="77.85" y1="173.13" x2="-91.4" y2="77.89" gradientTransform="translate(84.13 26.4) rotate(-0.26)" gradientUnits="userSpaceOnUse"><stop offset="0" stop-color="#cec7bb"/><stop offset="0.29" stop-color="#e0dbd0"/><stop offset="0.73" stop-color="#f7f4e9"/><stop offset="1" stop-color="#fffdf3"/></linearGradient><linearGradient id="linear-gradient-3" x1="493.25" y1="441.44" x2="469.46" y2="531.01" gradientTransform="translate(-370.77 -267.28) rotate(-6.91)" gradientUnits="userSpaceOnUse"><stop offset="0" stop-color="#4f734a"/><stop offset="0.14" stop-color="#5c7d55"/><stop offset="0.39" stop-color="#7e9973"/><stop offset="0.74" stop-color="#b5c5a2"/><stop offset="1" stop-color="#e3eacb"/></linearGradient><linearGradient id="linear-gradient-4" x1="991.98" y1="1515.34" x2="1015.42" y2="1587.3" gradientTransform="translate(1852.95 -533.79) rotate(101.22)" gradientUnits="userSpaceOnUse"><stop offset="0" stop-color="#d4a7b1"/><stop offset="1" stop-color="#e8d9dc"/></linearGradient><linearGradient id="linear-gradient-5" x1="1728.12" y1="448.33" x2="1728.12" y2="556.56" gradientTransform="translate(1490.78 -1059.98) rotate(119.9)" gradientUnits="userSpaceOnUse"><stop offset="0" stop-color="#b1191b"/><stop offset="1" stop-color="#87191b"/></linearGradient><linearGradient id="linear-gradient-6" x1="1691.27" y1="504.8" x2="1712.05" y2="606.06" gradientTransform="translate(1490.78 -1059.98) rotate(119.9)" gradientUnits="userSpaceOnUse"><stop offset="0" stop-color="#ce2025"/><stop offset="0.23" stop-color="#ce2025"/><stop offset="1" stop-color="#9d2025"/></linearGradient><linearGradient id="linear-gradient-7" x1="1703.56" y1="465.03" x2="1702.06" y2="597.16" xlink:href="#linear-gradient-5"/><linearGradient id="linear-gradient-8" x1="906.77" y1="1016.81" x2="908.22" y2="1099.88" gradientTransform="matrix(0.04, 1, -1, 0.04, 1177.7, -814.67)" gradientUnits="userSpaceOnUse"><stop offset="0" stop-color="#e7d9cf"/><stop offset="1" stop-color="#ddc3b7"/></linearGradient><linearGradient id="linear-gradient-9" x1="887.95" y1="1045.98" x2="898.65" y2="1045.98" gradientTransform="matrix(0.04, 1, -1, 0.04, 1177.7, -814.67)" gradientUnits="userSpaceOnUse"><stop offset="0" stop-color="#e79092"/><stop offset="0.23" stop-color="#e79092"/><stop offset="1" stop-color="#ce9092"/></linearGradient><linearGradient id="linear-gradient-10" x1="912.26" y1="1083.11" x2="917.64" y2="1083.11" xlink:href="#linear-gradient-9"/><linearGradient id="linear-gradient-11" x1="896.16" y1="1066.54" x2="902.73" y2="1066.54" xlink:href="#linear-gradient-9"/><linearGradient id="linear-gradient-12" x1="927.38" y1="1061.48" x2="936.51" y2="1061.48" xlink:href="#linear-gradient-9"/><linearGradient id="linear-gradient-13" x1="901.68" y1="1033.21" x2="909.64" y2="1033.21" xlink:href="#linear-gradient-9"/><linearGradient id="linear-gradient-14" x1="1063.44" y1="-402.83" x2="1079.23" y2="-351.83" gradientTransform="translate(-161.17 1270.96) rotate(-52.19)" gradientUnits="userSpaceOnUse"><stop offset="0" stop-color="#8cb136"/><stop offset="1" stop-color="#6b9241"/></linearGradient><radialGradient id="radial-gradient" cx="125.91" cy="735.5" r="60.21" gradientTransform="translate(125.34 -517.51) rotate(15.08) scale(0.9)" gradientUnits="userSpaceOnUse"><stop offset="0.01" stop-color="#d9df43"/><stop offset="1" stop-color="#b8bd00"/></radialGradient><linearGradient id="linear-gradient-15" x1="27.51" y1="336.34" x2="16.59" y2="315.53" gradientTransform="translate(137.18 -198.07) rotate(15.08)" gradientUnits="userSpaceOnUse"><stop offset="0" stop-color="#a86b22"/><stop offset="1" stop-color="#b09400"/></linearGradient><linearGradient id="linear-gradient-16" x1="106.65" y1="142.59" x2="132.58" y2="257.15" gradientUnits="userSpaceOnUse"><stop offset="0" stop-color="#8c5558"/><stop offset="0.08" stop-color="#875152"/><stop offset="0.68" stop-color="#66352c"/><stop offset="1" stop-color="#5a2b1d"/></linearGradient><linearGradient id="linear-gradient-17" x1="105.54" y1="178.77" x2="139.08" y2="237.2" gradientUnits="userSpaceOnUse"><stop offset="0" stop-color="#8c5558"/><stop offset="0.16" stop-color="#865051"/><stop offset="1" stop-color="#67362d"/></linearGradient><linearGradient id="linear-gradient-18" x1="102.56" y1="223.86" x2="108" y2="223.86" gradientUnits="userSpaceOnUse"><stop offset="0.02" stop-color="#fff7eb"/><stop offset="1" stop-color="#f2e6dc"/></linearGradient><linearGradient id="linear-gradient-19" x1="110.33" y1="222.99" x2="115.77" y2="222.99" xlink:href="#linear-gradient-18"/><linearGradient id="linear-gradient-20" x1="118.39" y1="222.57" x2="123.87" y2="222.57" xlink:href="#linear-gradient-18"/><linearGradient id="linear-gradient-21" x1="126.87" y1="221.47" x2="132.31" y2="221.47" xlink:href="#linear-gradient-18"/><linearGradient id="linear-gradient-22" x1="134.53" y1="220.53" x2="140.12" y2="220.53" xlink:href="#linear-gradient-18"/><linearGradient id="linear-gradient-23" x1="69.18" y1="187.67" x2="104.4" y2="239.49" gradientTransform="translate(-23.84)" gradientUnits="userSpaceOnUse"><stop offset="0" stop-color="#ffad00"/><stop offset="0.25" stop-color="#ffa700"/><stop offset="0.57" stop-color="#ff9800"/><stop offset="0.93" stop-color="#ff7e00"/><stop offset="0.98" stop-color="#ff7a00"/></linearGradient><linearGradient id="linear-gradient-24" x1="56.99" y1="192.17" x2="124.9" y2="250.99" gradientTransform="translate(-23.84)" gradientUnits="userSpaceOnUse"><stop offset="0" stop-color="#ffba26"/><stop offset="0.32" stop-color="#ffb526"/><stop offset="0.72" stop-color="#ffa526"/><stop offset="0.98" stop-color="#ff9726"/><stop offset="1" stop-color="#ff9726"/></linearGradient><linearGradient id="linear-gradient-25" x1="38.57" y1="170.22" x2="111.38" y2="239" gradientTransform="translate(-23.84)" gradientUnits="userSpaceOnUse"><stop offset="0" stop-color="#fb9600"/><stop offset="0.28" stop-color="#fb9100"/><stop offset="0.61" stop-color="#fb8200"/><stop offset="0.98" stop-color="#fb6a00"/><stop offset="1" stop-color="#fb6a00"/></linearGradient><linearGradient id="linear-gradient-26" x1="74.65" y1="183.08" x2="79.08" y2="193.26" gradientTransform="translate(-23.84)" gradientUnits="userSpaceOnUse"><stop offset="0" stop-color="#6d8a3f"/><stop offset="0.23" stop-color="#73873c"/><stop offset="0.52" stop-color="#827f35"/><stop offset="0.85" stop-color="#9c7128"/><stop offset="0.98" stop-color="#a86b22"/></linearGradient><linearGradient id="linear-gradient-27" x1="74.74" y1="179.49" x2="78.66" y2="191.93" gradientTransform="translate(-23.84)" gradientUnits="userSpaceOnUse"><stop offset="0" stop-color="#62722e"/><stop offset="0.25" stop-color="#676f2c"/><stop offset="0.55" stop-color="#766826"/><stop offset="0.88" stop-color="#8e5c1c"/><stop offset="0.98" stop-color="#975819"/><stop offset="1" stop-color="#975819"/></linearGradient><linearGradient id="linear-gradient-28" x1="168.65" y1="208.73" x2="180.16" y2="188.29" gradientUnits="userSpaceOnUse"><stop offset="0" stop-color="#9ec251"/><stop offset="1" stop-color="#c6e08d"/></linearGradient><linearGradient id="linear-gradient-29" x1="148.52" y1="201.66" x2="156.52" y2="232.1" gradientUnits="userSpaceOnUse"><stop offset="0" stop-color="#c64f69"/><stop offset="0.6" stop-color="#962c47"/><stop offset="1" stop-color="#73122e"/></linearGradient><linearGradient id="linear-gradient-30" x1="98.69" y1="83.5" x2="99.11" y2="173.98" gradientTransform="translate(10.94 -34.28) rotate(2.16)" gradientUnits="userSpaceOnUse"><stop offset="0" stop-color="#e3d7c5"/><stop offset="1" stop-color="#bfb6a6"/></linearGradient><linearGradient id="linear-gradient-31" x1="130.48" y1="208.96" x2="130.48" y2="256.62" gradientUnits="userSpaceOnUse"><stop offset="0" stop-color="#d9cebc"/><stop offset="1" stop-color="#baac95"/></linearGradient><linearGradient id="linear-gradient-32" x1="130.9" y1="133.9" x2="130.9" y2="139.7" gradientUnits="userSpaceOnUse"><stop offset="0" stop-color="#d9cebc"/><stop offset="0.21" stop-color="#e0d5c2"/><stop offset="0.52" stop-color="#e6dac7"/><stop offset="0.67" stop-color="#e1d6c3"/><stop offset="0.84" stop-color="#d4c9b8"/><stop offset="1" stop-color="#bfb6a6"/></linearGradient><linearGradient id="linear-gradient-33" x1="130.12" y1="231.52" x2="130.12" y2="236.27" gradientUnits="userSpaceOnUse"><stop offset="0" stop-color="#d9cebc"/><stop offset="0.18" stop-color="#e0d5c2"/><stop offset="0.46" stop-color="#e6dac7"/><stop offset="0.63" stop-color="#e0d4c2"/><stop offset="0.85" stop-color="#cec4b3"/><stop offset="1" stop-color="#bfb6a6"/></linearGradient><linearGradient id="linear-gradient-34" x1="130.12" y1="156.99" x2="130.12" y2="161.15" xlink:href="#linear-gradient-33"/></defs><title>Artboard 5</title><g class="cls-1"><g id="Layer_1" data-name="Layer 1"><g id="_Group_" data-name="&lt;Group&gt;"><path id="_Path_" data-name="&lt;Path&gt;" class="cls-2" d="M6.41,73.33,64.75,54.16S47.13,101.19,6.41,73.33Z"/><polygon id="_Path_2" data-name="&lt;Path&gt;" class="cls-3" points="52.1 52.78 38.44 57.33 31.18 35.53 23.42 37.9 21.53 32.15 18.25 33.4 20.18 39.19 17.21 40.18 23.19 58.14 13.21 61.47 10.25 52.56 5.8 54.04 45.5 173.31 49.24 172.06 47.5 166.5 48.59 165.84 50.61 171.61 59.35 168.7 58.12 164.99 62.98 163.48 64.63 166.94 71.1 164.79 70.2 161.78 72.51 160.81 87.87 159.2 52.1 52.78"/><rect id="_Rectangle_" data-name="&lt;Rectangle&gt;" class="cls-4" x="71.14" y="40.46" width="2.61" height="120.74" transform="translate(173.03 173.62) rotate(161.59)"/><rect id="_Rectangle_2" data-name="&lt;Rectangle&gt;" class="cls-5" x="40.2" y="20.23" width="2.61" height="143.23" transform="translate(109.9 165.87) rotate(161.59)"/><rect id="_Rectangle_3" data-name="&lt;Rectangle&gt;" class="cls-5" x="44.79" y="20.96" width="2.61" height="143.23" transform="translate(119.08 165.85) rotate(161.59)"/><rect id="_Rectangle_4" data-name="&lt;Rectangle&gt;" class="cls-6" x="46.02" y="31.13" width="2.61" height="143.23" transform="translate(124.69 185.28) rotate(161.59)"/><rect id="_Rectangle_5" data-name="&lt;Rectangle&gt;" class="cls-7" x="35.77" y="40.01" width="3.02" height="134.15" transform="translate(106.48 196.9) rotate(161.59)"/><rect id="_Rectangle_6" data-name="&lt;Rectangle&gt;" class="cls-7" x="24.55" y="28.57" width="2.61" height="143.23" transform="translate(82.04 187.06) rotate(161.59)"/><rect id="_Rectangle_7" data-name="&lt;Rectangle&gt;" class="cls-6" x="24.11" y="46.4" width="2.61" height="135.19" transform="translate(85.54 214.12) rotate(161.59)"/><rect id="_Rectangle_8" data-name="&lt;Rectangle&gt;" class="cls-5" x="36.39" y="31.23" width="2.61" height="143.23" transform="translate(105.95 188.51) rotate(161.59)"/><rect id="_Rectangle_9" data-name="&lt;Rectangle&gt;" class="cls-7" x="30.48" y="26.47" width="2.61" height="143.23" transform="translate(92.94 181.1) rotate(161.59)"/><rect id="_Rectangle_10" data-name="&lt;Rectangle&gt;" class="cls-6" x="42.5" y="38.9" width="2.61" height="133.72" transform="translate(118.78 192.26) rotate(161.59)"/><rect id="_Rectangle_11" data-name="&lt;Rectangle&gt;" class="cls-6" x="38.01" y="50.63" width="2.61" height="127.51" transform="translate(112.76 210.49) rotate(161.59)"/><rect id="_Rectangle_12" data-name="&lt;Rectangle&gt;" class="cls-6" x="32.95" y="46.02" width="2.61" height="131.46" transform="translate(102.07 206.96) rotate(161.59)"/><rect id="_Rectangle_13" data-name="&lt;Rectangle&gt;" class="cls-7" x="54.27" y="36.54" width="2.61" height="131.43" transform="translate(140.6 181.72) rotate(161.59)"/><rect id="_Rectangle_14" data-name="&lt;Rectangle&gt;" class="cls-7" x="70.34" y="47.04" width="2.61" height="118.65" transform="translate(173.21 184.65) rotate(161.59)"/><rect id="_Rectangle_15" data-name="&lt;Rectangle&gt;" class="cls-6" x="67.19" y="39.29" width="2.61" height="124.96" transform="translate(165.63 176.69) rotate(161.58)"/><rect id="_Rectangle_16" data-name="&lt;Rectangle&gt;" class="cls-6" x="74.26" y="43.18" width="2.61" height="120.74" transform="translate(179.96 177.92) rotate(161.59)"/><rect id="_Rectangle_17" data-name="&lt;Rectangle&gt;" class="cls-7" x="58.63" y="35.39" width="2.61" height="133.79" transform="translate(149.1 180.4) rotate(161.59)"/><rect id="_Rectangle_18" data-name="&lt;Rectangle&gt;" class="cls-4" x="59.08" y="41.79" width="2.61" height="127.51" transform="translate(151.03 186.61) rotate(161.59)"/><rect id="_Rectangle_19" data-name="&lt;Rectangle&gt;" class="cls-7" x="59.38" y="29.16" width="2.61" height="136.49" transform="translate(149.04 170.65) rotate(161.59)"/><rect id="_Rectangle_20" data-name="&lt;Rectangle&gt;" class="cls-6" x="62.96" y="36.94" width="2.61" height="131.22" transform="translate(157.64 179.55) rotate(161.59)"/><rect id="_Rectangle_21" data-name="&lt;Rectangle&gt;" class="cls-6" x="52.98" y="38.96" width="2.61" height="131.22" transform="translate(138.83 186.63) rotate(161.58)"/><rect id="_Rectangle_22" data-name="&lt;Rectangle&gt;" class="cls-6" x="56.32" y="33.17" width="2.61" height="138.15" transform="translate(144.6 181.06) rotate(161.59)"/><path id="_Path_3" data-name="&lt;Path&gt;" class="cls-8" d="M11.62,76.5C42.34,92,61,61.65,62.29,59.55L95.87,160.42l1.21,3.8L46.36,181l-.83-2.44-34-102.07Z"/><path id="_Compound_Path_" data-name="&lt;Compound Path&gt;" class="cls-9" d="M64.75,54.16l37.18,113L44.6,186.12,6.41,73.33C47.13,101.19,64.75,54.16,64.75,54.16ZM29,111.61,70.94,98,66.25,84.31,24.86,99Z"/></g><g id="_Group_2" data-name="&lt;Group&gt;"><path id="_Path_4" data-name="&lt;Path&gt;" class="cls-10" d="M202,210.93a22,22,0,0,0-15.92-8.34c-10.84-.84-21.47,13.56-17.36,28.45s16.84,18.52,21.2,20,19.67,4.53,29.93-6.17c10.69-11.15,8.66-26,1.19-31.82S202,210.93,202,210.93Z"/><g id="_Group_3" data-name="&lt;Group&gt;"><path id="_Path_5" data-name="&lt;Path&gt;" class="cls-11" d="M201.65,210.09a5.29,5.29,0,0,1,.54.13,6.82,6.82,0,0,1,1.1.44c1.11-3,2.42-6.27,3.43-8.38.6-1.25-3.18-2.31-3.34-.79A75.6,75.6,0,0,1,201.65,210.09Z"/></g><path id="_Path_6" data-name="&lt;Path&gt;" class="cls-12" d="M201.46,212.78c-6.05-1.82-11.44-7.4-14-12.3,0,0,7.85,2.66,11.56,7.23a14.61,14.61,0,0,1,.75-9.21s3.35,5.28,2.93,10.26c0,0,3.46-4.28,8.83-3.27a42.06,42.06,0,0,1-4.65,4.46,12.24,12.24,0,0,1,8.58-.14A14.21,14.21,0,0,1,201.46,212.78Z"/><path id="_Path_7" data-name="&lt;Path&gt;" class="cls-13" d="M182.47,209.74c-5.28.78-10.75,6.36-9.76,15.73.81,7.62,7,13.84,14.59,13.87,7.11,0,12.68-3.44,13.34-12.92C201.28,217.26,190,208.63,182.47,209.74Z"/><path id="_Path_8" data-name="&lt;Path&gt;" class="cls-14" d="M182.6,206c-6.33.18-14.84,10-7.8,19.66,6.6,9.09,19.34,3,21.34-5.35C197.83,213.3,190.12,205.82,182.6,206Z"/><path id="_Path_9" data-name="&lt;Path&gt;" class="cls-15" d="M184.64,209.26c-1-1.4-3.32-1.39-4.59-.21a3,3,0,0,0-.69,3.65c.92,1.47,3.43,1.57,4.75.3A3,3,0,0,0,184.64,209.26Z"/></g><g id="_Group_4" data-name="&lt;Group&gt;"><g id="_Group_5" data-name="&lt;Group&gt;"><path id="_Compound_Path_2" data-name="&lt;Compound Path&gt;" class="cls-16" d="M125.5,110.62C112.7,92.18,97,88.24,97,88.24l-38.62,0s-19.25,7-26.1,26.68c-7.61,21.87-4.27,77.48,3.49,88.23s80.57,8.49,89.4.75S137.24,127.53,125.5,110.62ZM114.42,147c-7.32-1.3-20.23-34.47-17.57-39.86,1.45-2.93,14.89,5.65,17.86,12.34S119,147.79,114.42,147Z"/><path id="_Path_10" data-name="&lt;Path&gt;" class="cls-17" d="M97,88.24H89c21,7,28.89,16.68,33.1,24.63,4,7.55,6.64,32.78,4.2,51.18-3.27,24.67-32.84,43.51-58.92,41.49-22-1.7-35.57-23.77-38.62-35,1.18,15,3.7,28,7,32.63,7.75,10.75,80.57,8.49,89.4.75s12.08-76.35.34-93.26C112.7,92.18,97,88.24,97,88.24Z"/><path id="_Path_11" data-name="&lt;Path&gt;" class="cls-18" d="M59.43,88C64.49,93.75,70.51,97.7,78,97.54c13-.27,17.85-10.2,17.85-10.2h0Z"/><path id="_Path_12" data-name="&lt;Path&gt;" class="cls-19" d="M58.29,71.47l.08,16.75s16.84,9.19,38.62,0l-.08-16.56Z"/><path id="_Path_13" data-name="&lt;Path&gt;" class="cls-20" d="M96.91,71.68l-4.14,0L88.2,75.27,88.37,91A53.42,53.42,0,0,0,97,88.24Z"/><path id="_Path_14" data-name="&lt;Path&gt;" class="cls-21" d="M58.29,71.47A35,35,0,0,1,77.77,65.2a31.86,31.86,0,0,1,19.14,6.48s-5.75,8.13-20.24,8.2A24.48,24.48,0,0,1,58.29,71.47Z"/><path id="_Path_15" data-name="&lt;Path&gt;" class="cls-22" d="M59.36,72.64a24.45,24.45,0,0,0,17.31,7.24,32.86,32.86,0,0,0,8.79-1.18C69.17,80.2,59.53,72.79,59.36,72.64Z"/><path id="_Path_16" data-name="&lt;Path&gt;" class="cls-23" d="M114.42,147c-7.32-1.3-20.23-34.47-17.57-39.86,0,0-19,23.95-11.45,35.42C89.91,149.42,114.42,147,114.42,147Z"/><path id="_Path_17" data-name="&lt;Path&gt;" class="cls-24" d="M50.18,98.71c-1.32-2.19-12.19,7.84-14.65,16.74s-4.56,35.86-2.61,37,3.75-32.25,5.39-37S51,100.1,50.18,98.71Z"/></g><path id="_Path_18" data-name="&lt;Path&gt;" class="cls-17" d="M31.28,190c1.22,6,2.74,10.72,4.48,13.13,7.75,10.75,80.57,8.49,89.4.75,2.56-2.25,4.65-9.61,6-19.34C104.53,201.18,60.08,210,31.28,190Z"/></g><g id="_Group_6" data-name="&lt;Group&gt;"><path id="_Path_19" data-name="&lt;Path&gt;" class="cls-25" d="M187.76,123.32s24-52.36,29.87-63.81l14.79,5.75s-32.56,63.85-39.81,82.56Z"/><path id="_Path_20" data-name="&lt;Path&gt;" class="cls-25" d="M189.32,59.2l16.1-.94s3,55.57-14.34,88.51Z"/><path id="_Path_21" data-name="&lt;Path&gt;" class="cls-26" d="M199.28,113.55c-.65-23.07-2-46.63-3.06-54.75l-6.9.4,1.17,58.17-2.73,5.95,3.17,16,.15,7.44c.33-.62.64-1.25.95-1.88l.58,2.93c4.25-11,17.18-37.42,27.17-57.45C210.52,100.8,199.28,113.55,199.28,113.55Z"/><path id="_Path_22" data-name="&lt;Path&gt;" class="cls-27" d="M182.18,138.38s38.55-45,63.38-71.63L257.36,78,181,161Z"/><path id="_Path_23" data-name="&lt;Path&gt;" class="cls-27" d="M180.69,126.63c-.18-1-1.75-52.79-2.43-72.59l15.19-2.48s6.82,76.14-3.9,106.85Z"/><path id="_Path_24" data-name="&lt;Path&gt;" class="cls-28" d="M245,87C229.94,94.45,191,135.8,191,135.8c-3.22-20.16-8.83-43-11.91-55,.69,21.45,1.44,45.12,1.56,45.78l2.84,10.19-1.35,1.56L181,161l7.11-7.73,1.44,5.15a71.94,71.94,0,0,0,2.51-9.45l53.76-58.45Z"/><polygon id="_Path_25" data-name="&lt;Path&gt;" class="cls-29" points="184.63 168.01 258 93.69 245.93 82.83 184 150.08 184.63 168.01"/><path id="_Path_26" data-name="&lt;Path&gt;" class="cls-30" d="M155.7,65.39l21,80.1L159.82,202l18.43,5.11s12.9-38.67,9.16-69.35c-3.85-31.64-17.89-79.31-17.89-79.31Z"/></g><path class="cls-31" d="M213.1,98.76c-31.56-5.71-62.69-12.16-94.25-17.87-7.78,40.11-16,81-23.75,121.07l93.51,20.22Z"/><path class="cls-32" d="M174.19,96.58,123.41,87.2,101.86,198.6l51,11.22S181.32,159.78,174.19,96.58Z"/><g id="_Group_7" data-name="&lt;Group&gt;"><g id="_Group_8" data-name="&lt;Group&gt;"><g id="_Group_9" data-name="&lt;Group&gt;"><g id="_Group_10" data-name="&lt;Group&gt;"><g id="_Group_11" data-name="&lt;Group&gt;"><path id="_Path_27" data-name="&lt;Path&gt;" class="cls-33" d="M135.08,199.66C115.83,190,107,166.72,117.25,146.21c9.67-19.25,33.54-26.78,52.8-17.11A39.55,39.55,0,0,1,188,181.39C178.62,201.48,154.34,209.32,135.08,199.66Z"/><path id="_Path_28" data-name="&lt;Path&gt;" class="cls-34" d="M135.65,197.62a37.66,37.66,0,1,1,50.55-16.77A37.67,37.67,0,0,1,135.65,197.62Z"/><path id="_Path_29" data-name="&lt;Path&gt;" class="cls-35" d="M137.41,194.4A34.64,34.64,0,1,1,183.9,179,34.63,34.63,0,0,1,137.41,194.4Z"/><path id="_Path_30" data-name="&lt;Path&gt;" class="cls-36" d="M151.27,178.07c-.76-1.45-8.22-.61-8,2.42S152.45,180.33,151.27,178.07Z"/><path id="_Path_31" data-name="&lt;Path&gt;" class="cls-37" d="M142,190.24c-1.61,2.77-8.77-2.15-7.21-4.37S143.57,187.62,142,190.24Z"/><path id="_Path_32" data-name="&lt;Path&gt;" class="cls-38" d="M170.34,187.4a2.68,2.68,0,1,0-3.66,1A2.7,2.7,0,0,0,170.34,187.4Z"/><path id="_Path_33" data-name="&lt;Path&gt;" class="cls-36" d="M179.72,181a1.54,1.54,0,0,0-2.66-1.53A1.54,1.54,0,0,0,179.72,181Z"/><path id="_Path_34" data-name="&lt;Path&gt;" class="cls-36" d="M129.32,182.53a2.5,2.5,0,0,0,2.13-1.25,2.43,2.43,0,0,0,0-2.47,2.62,2.62,0,0,0-1.58-1.2,2.33,2.33,0,0,0-1.23,0,2.46,2.46,0,0,0-1.07.62l-.44.57a2.45,2.45,0,0,0,0,2.48A2.51,2.51,0,0,0,129.32,182.53Z"/><path id="_Path_35" data-name="&lt;Path&gt;" class="cls-36" d="M124.65,170.1a1.72,1.72,0,0,0,1.26-1.66,4.5,4.5,0,0,0-.08-.51,1.63,1.63,0,0,0-2-1.15l-.09,0a1.72,1.72,0,0,0-.77,2.85A1.75,1.75,0,0,0,124.65,170.1Z"/><path id="_Path_36" data-name="&lt;Path&gt;" class="cls-38" d="M161.18,180.82a1.6,1.6,0,0,0,.8-3.09,1.66,1.66,0,0,0-1.52.41,1.19,1.19,0,0,0-.42.71,1.6,1.6,0,0,0,1.14,2Z"/></g></g><path id="_Path_37" data-name="&lt;Path&gt;" class="cls-36" d="M156.94,189.08s-3.67,3.42-4.67,1.78,3.67-5.68,5.55-5.58,5,7.25,3,7.8C159.44,193.44,156.94,189.08,156.94,189.08Z"/></g><g id="_Group_12" data-name="&lt;Group&gt;"><path id="_Path_38" data-name="&lt;Path&gt;" class="cls-22" d="M186.15,143a1.46,1.46,0,1,0-2,.54A1.48,1.48,0,0,0,186.15,143Z"/><g id="_Group_13" data-name="&lt;Group&gt;"><g id="_Group_14" data-name="&lt;Group&gt;"><path id="_Path_39" data-name="&lt;Path&gt;" class="cls-39" d="M140.1,170.61a37.66,37.66,0,1,1,50.56-16.76A37.66,37.66,0,0,1,140.1,170.61Z"/><path id="_Path_40" data-name="&lt;Path&gt;" class="cls-40" d="M146.21,159.38a28.54,28.54,0,1,1,39-10.49A28.57,28.57,0,0,1,146.21,159.38Z"/><path id="_Compound_Path_3" data-name="&lt;Compound Path&gt;" class="cls-41" d="M139.88,171.05a38.16,38.16,0,1,0-17-51.22A38.15,38.15,0,0,0,139.88,171.05ZM126,121.36a34.77,34.77,0,1,1,62.18,31.15,34.3,34.3,0,0,1-46.55,15.29C124.23,159.06,117.34,138.65,126,121.36Z"/><path id="_Compound_Path_4" data-name="&lt;Compound Path&gt;" class="cls-42" d="M139.72,172.29c18.94,9.78,43.41.78,52.47-17.56,9.43-19.12,1.92-43.47-17.13-53s-43.38-1.93-52.95,17.12A40.18,40.18,0,0,0,139.72,172.29Zm-15.27-52.66c11.21-19.5,31.83-25.17,49.44-16.33s25.55,33.06,16.77,50.55-32.56,25.4-50.1,16.43C121,160.29,114.05,137.7,124.45,119.63Z"/><path id="_Path_41" data-name="&lt;Path&gt;" class="cls-43" d="M171.27,120.94s4.34-2.28,2.89-3.89-7.32,2.12-7.83,4.19,6,7.68,7.48,5.73S171.27,120.94,171.27,120.94Z"/><path id="_Path_42" data-name="&lt;Path&gt;" class="cls-44" d="M138.15,147.12c.46-1.57-5.53-6.11-7.43-3.73S137.45,149.58,138.15,147.12Z"/><path id="_Path_43" data-name="&lt;Path&gt;" class="cls-45" d="M149.07,126c3-1.2,4.86,5.51,2.27,6.31S146.26,127.14,149.07,126Z"/><path id="_Path_44" data-name="&lt;Path&gt;" class="cls-46" d="M154,116c1.57-.94,2.39-5.82,1.06-6.31s-2.81,3.5-2.81,3.5-3.69-3-4.39-.94S152.24,117.05,154,116Z"/><path id="_Path_45" data-name="&lt;Path&gt;" class="cls-47" d="M157,162.47s-4.93,1-4.18,2.74,6.74.35,7.77-1.23-2.93-8.33-4.59-7C154.91,157.89,157,162.47,157,162.47Z"/><path id="_Path_46" data-name="&lt;Path&gt;" class="cls-48" d="M181.89,130.16c-1.37.89.2,8.24,3.19,7.67S184,128.76,181.89,130.16Z"/><path id="_Path_47" data-name="&lt;Path&gt;" class="cls-49" d="M173.66,146.32c-3,1.2-4.85-5.52-2.27-6.31S176.47,145.18,173.66,146.32Z"/><path id="_Path_48" data-name="&lt;Path&gt;" class="cls-49" d="M160.92,124c-1.61,2.77-7.22-1.38-5.66-3.6S162.45,121.4,160.92,124Z"/><path id="_Path_49" data-name="&lt;Path&gt;" class="cls-46" d="M167.42,147.88c-1.48-1.07-6.29.09-6.22,1.51s4.32,1.21,4.32,1.21-1.72,5.08.49,4.9S169.07,149.08,167.42,147.88Z"/><path id="_Path_50" data-name="&lt;Path&gt;" class="cls-46" d="M151.16,140.45c-.41-1-5.33,1.18-5,4s5.67,4.08,5.81,2.75-2.45-3.52-2.45-3.52S151.57,141.48,151.16,140.45Z"/></g><path id="_Path_51" data-name="&lt;Path&gt;" class="cls-37" d="M179.74,122.11a2.23,2.23,0,0,0,2.44-1l0,0a2.09,2.09,0,0,0,.21-1.62,2.2,2.2,0,0,0-1-1.3l0,0a2.16,2.16,0,0,0-2.17,0,2.18,2.18,0,0,0,.53,4Z"/><path id="_Path_52" data-name="&lt;Path&gt;" class="cls-50" d="M165.44,130.35a1.62,1.62,0,1,0-2.21.59A1.63,1.63,0,0,0,165.44,130.35Z"/><path id="_Path_53" data-name="&lt;Path&gt;" class="cls-50" d="M161,115.24a1.61,1.61,0,1,0-2.21.6A1.64,1.64,0,0,0,161,115.24Z"/><path id="_Path_54" data-name="&lt;Path&gt;" class="cls-51" d="M147.44,165.17a2.33,2.33,0,1,0-3.19.87A2.35,2.35,0,0,0,147.44,165.17Z"/><path id="_Path_55" data-name="&lt;Path&gt;" class="cls-51" d="M127.9,135.72a1.31,1.31,0,0,0-1.58-1.57,1,1,0,0,0-.36.13,1.24,1.24,0,0,0-.62,1.09,1.27,1.27,0,0,0,.39.93A1.31,1.31,0,0,0,127.9,135.72Z"/><path id="_Path_56" data-name="&lt;Path&gt;" class="cls-51" d="M135.57,156.51a2.49,2.49,0,1,0-3.4.92A2.52,2.52,0,0,0,135.57,156.51Z"/><path id="_Path_57" data-name="&lt;Path&gt;" class="cls-50" d="M143.14,124.69a2.47,2.47,0,1,0-3.37.91A2.48,2.48,0,0,0,143.14,124.69Z"/><path id="_Path_58" data-name="&lt;Path&gt;" class="cls-51" d="M168.14,167.84A2.28,2.28,0,0,0,170.3,165a2.25,2.25,0,0,0-1.71-1.59h.07l0,0a1.82,1.82,0,0,0-1.47.18l-.14.06h.05a5.72,5.72,0,0,0-.48.32,2.26,2.26,0,0,0,1.56,3.89Z"/></g></g></g></g><path class="cls-52" d="M174.19,96.58s-19,45.33-21.36,113.24A810.38,810.38,0,0,0,174.19,96.58Z"/><path class="cls-53" d="M212.05,104.09l-37.86-7.51c-7.06,37.48-14.29,75.76-21.36,113.24,12.22,2.65,23.35,4.86,36.82,7.15Z"/><polygon class="cls-54" points="197.7 106.92 180.1 198.68 184.97 200.3 204.19 108.27 197.7 106.92"/><polygon class="cls-54" points="178.21 103.4 174.69 123.43 188.49 126.68 192.55 107.46 178.21 103.4"/><polygon class="cls-54" points="173.88 129.38 187.14 131.82 177.94 189.21 162.24 186.5 173.88 129.38"/><path class="cls-55" d="M188.61,222.18q7-35.46,14.08-70.92L162,188.16l-23.39-19.42-2.35,42.12Z"/><path class="cls-56" d="M182.27,253.19c-4.18.53-37.11-24.34-36.13-29.26s67.1-90.45,71.46-91c5.17-.69,36,24.58,35.85,27C253.12,164.51,184.07,253,182.27,253.19Z"/><path class="cls-57" d="M181.06,249.31c-2.15,1.75-29.34-19.38-31.31-22.1-2.41-3.34-.85-6,5.18-4-2-5.49-1.27-9.88,5.72-7.76-2.53-5.52-1-9.92,5.56-7.6-3.24-6.5-1.16-8.62,5-6.94-3.56-4.68.51-9,5.37-8.08-3.3-4.78,1.76-7.93,6.37-6.72-3.72-4.35-1-8.85,4.55-7.21-3.82-4.85.69-7.89,5.15-5.27-3.6-5.48.1-9.81,5.46-7.72-3.73-6.06,1.41-9.17,6.07-7.49-2.28-4.53-.38-9.65,5.9-7.22-3.84-5.18,1.41-10.15,6.83-7.48-2.84-4.49-.53-6.61,1.65-6.84,3.72-.38,31.66,20.41,30.59,24.76-.57,2.28-5,4.59-8.26,2.09,5.44,6.9,1.87,10.48-5.51,7.43,5.39,6.63,1.38,10.1-5.32,6.86,1.38,2.1,3.61,5.09,2.2,7.33-1.55,2.45-5.28,2.23-7.8,1.25,1.21,2,2.54,4.29,1.11,6.31-1.28,1.81-4.8,1.18-6.63.4-.12-.09-.11-.1,0,0,5,5.49.93,9.42-5.16,5.77,5.56,7,.84,9.67-5.69,6.55,1.71,2.25,4.38,5.36,2.06,7.87-1.44,1.55-5.5.27-7.4-.53,1.64,2.8,3.7,6.19,1.61,8-1.71,1.46-5.74.23-7.84-.64,6,7.4,3.06,10.19-5.66,6.84,1.33,1.82,4.12,6.63,2,8.57-1.75,1.64-6,.16-7.9-.68,2.21,2.93,3.12,6.56,2.47,7.69-.95,1.61-6.12.74-7.36,0h0C182.14,245.54,182.12,248.45,181.06,249.31Z"/><path class="cls-58" d="M196.54,220.32c2.1.87,6.13,2.1,7.84.64,2.09-1.8,0-5.19-1.61-8,1.9.8,6,2.08,7.4.53,2.32-2.51-.35-5.62-2.06-7.87,6.53,3.12,11.25.44,5.69-6.55,6.09,3.65,10.12-.27,5.18-5.75,1.83.77,5.32,1.38,6.59-.42,1.43-2,.1-4.32-1.11-6.31,2.52,1,6.25,1.2,7.8-1.25,1.41-2.24-.82-5.23-2.2-7.33,6.7,3.24,10.71-.23,5.32-6.86,7.38,3.05,11-.53,5.51-7.43,3.3,2.5,7.69.19,8.26-2.09.46-1.9-4.86-7.27-11.33-12.68,2.74,3.14,5.25,6.69,3.51,8.26-2.28,2.07-15.18-5.83-15.18-5.83s9.35,10.2,8.18,12.75-15-5-15-5,10.81,9.6,9.52,12S213,164.61,213,164.61s11.9,10.91,9.79,14.15-13.71-3.87-13.71-3.87,9.87,9.34,8.24,10.92-19.83-9.26-19.83-9.26,17.75,14.79,16.53,16.88-17-7.08-17-7.08,13.62,12.19,12.18,14.31-20.47-9.18-20.47-9.18,17.66,14.11,15.47,16.67-20.48-8.39-20.48-8.39,15.66,12.77,14.47,15.09-22.49-10.76-22.49-10.76S195,219.83,193.09,223s-23.28-11.57-23.28-11.57,18.51,15.38,16.82,18.33-18.52-8.29-18.52-8.29,14.17,13.64,12.82,15.63-22.83-11.62-22.83-11.62,18.27,16.2,18.93,18.74c.4,1.52-.94,2.12-2.09,2.35,3.19,2,5.55,3.18,6.12,2.71,1.06-.86,1.08-3.77-.94-6.59h0c1.24.76,6.41,1.63,7.36,0,.65-1.13-.26-4.76-2.47-7.69,1.93.84,6.15,2.32,7.9.68,2.09-1.94-.7-6.75-2-8.57C199.6,230.51,202.5,227.72,196.54,220.32Z"/><path class="cls-59" d="M189.87,165h0c9.24,16.44,28,28,37.47,31.55l4.06-5.38C214.89,180.4,189.87,165,189.87,165Z"/><path class="cls-60" d="M228.74,194.7c-8.55-6.61-28.25-21.82-38.87-29.71-7,8.8-14.39,18.34-21.09,27.14,8.17,6.57,26.37,21.12,38.64,30.2C214.34,213.48,221.84,203.78,228.74,194.7Z"/><path class="cls-61" d="M208.92,217.09c-6.86-4.9-28.48-20.08-28.59-19.51s20.84,16.94,26.89,21.69Z"/><path class="cls-61" d="M222.11,193.31c.48-.42-23.16-18.75-32.11-25.67l-1.64,2.08C196.48,175.64,221.61,193.75,222.11,193.31Z"/><path class="cls-62" d="M194.81,200.72c.79-1.65-13.95-12.9-15.31-11.56C177.94,190.7,194,202.45,194.81,200.72Z"/><path class="cls-62" d="M191.87,188.68c.92-1.55-7.81-8.13-9.08-6.72C181.32,183.57,190.91,190.31,191.87,188.68Z"/><path class="cls-63" d="M205.64,165.51c-.85,1.05-7.38-4.44-6.91-5.42S206.62,164.32,205.64,165.51Z"/><path class="cls-63" d="M172.17,206.84c-.86,1.08-5.69-3.14-5.25-4.16S173.15,205.63,172.17,206.84Z"/><path class="cls-63" d="M207.22,166.83c-1,1.14,11.41,10.87,12.4,9.62S208,166,207.22,166.83Z"/><path class="cls-64" d="M222.84,134.92,185,235.05c-1.18-7.92-9.84-20.91-9.84-20.91l-12.58,26.71a134.33,134.33,0,0,0,15.73,10.83h0l.13.07.21.11.52.27.09.05h0a6.93,6.93,0,0,0,3,1c1.8-.23,70.85-88.68,71.18-93.29C253.59,157.92,233.25,140.88,222.84,134.92Z"/><g id="_Group_15" data-name="&lt;Group&gt;"><g id="_Group_16" data-name="&lt;Group&gt;"><g id="_Group_17" data-name="&lt;Group&gt;"><path id="_Path_59" data-name="&lt;Path&gt;" class="cls-65" d="M66.72,135c1.53,1.3,3.11,2.65,5.13,3.07a1,1,0,0,0,.51-1.88,14.43,14.43,0,0,1-4.54-2.59c-.8-.62-1.87.74-1.1,1.4Z"/></g><path id="_Path_60" data-name="&lt;Path&gt;" class="cls-66" d="M87.06,151.09c-.46,2.17-.9,4.33-1.15,6.45-1.06,8.88,3.42,17.06,3,25.91-.56,13.22-9.34,21.64-23.93,18.46a17.94,17.94,0,0,1-8.56-4.32c-2.16-2-4.31-4.66-7.56-4.44-8.43.6-17.92-.8-21.59-9.67-4-9.78,2-19.16,9.06-25.41,6.8-6,13.11-12.23,18.11-20,2.22-3.45,4.68-9.26,8.75-10.83a8.22,8.22,0,0,1,9.05,2.29s14.51-3,16.13,6.63C89.23,141.05,88.1,146.11,87.06,151.09Z"/><g id="_Group_18" data-name="&lt;Group&gt;" class="cls-67"><path id="_Path_61" data-name="&lt;Path&gt;" class="cls-68" d="M89,183.45c.38-8.85-4.1-17-3-25.91.25-2.12.69-4.28,1.15-6.45,1-5,2.17-10,1.35-14.9-1.62-9.58-16.13-6.63-16.13-6.63a11.37,11.37,0,0,0-1-.89q1.41,1.86,2.67,3.85c6.38,10.06,6.92,22.63,4.42,33.93C76,177.33,67.05,188.09,57.54,193.56c-1.12.65-2.28,1.24-3.47,1.78.83.73,1.61,1.53,2.39,2.25A17.94,17.94,0,0,0,65,201.91C79.61,205.09,88.39,196.67,89,183.45Z"/></g><path class="cls-69" d="M85.91,157.54c.25-2.12.69-4.28,1.15-6.45,1-5,2.17-10,1.35-14.9s-5.2-6.59-9.17-7a39.49,39.49,0,0,1,2.51,6.62l1.38,10.31c1.3,9.68-5.07,20.66-11.36,27.44C64.85,181.05,54.43,185,44.33,185h-.2a38.54,38.54,0,0,1-17.71-4.28,17.79,17.79,0,0,0,.89,2.8c3.67,8.87,13.16,10.27,21.59,9.67,3.25-.22,5.4,2.46,7.56,4.44A17.94,17.94,0,0,0,65,201.91c14.59,3.18,23.37-5.24,23.93-18.46C89.33,174.6,84.85,166.42,85.91,157.54Z"/><path class="cls-70" d="M82.88,198.28a19.11,19.11,0,0,0,5.6-10.71,44.48,44.48,0,0,0-29,1.12S70.91,193.77,82.88,198.28Z"/><g id="_Group_19" data-name="&lt;Group&gt;"><path id="_Path_62" data-name="&lt;Path&gt;" class="cls-71" d="M69.33,131.61s3.75-9,2-14.48,7-4.11,7.37-1.21c.45,3.58-4.14,16.59-5.32,17.42S69.76,132.87,69.33,131.61Z"/><path id="_Path_63" data-name="&lt;Path&gt;" class="cls-72" d="M72.58,128.22a14.68,14.68,0,0,1-1.9-.66,38.25,38.25,0,0,1-1.35,4.05c.43,1.26,2.85,2.56,4,1.73.43-.3,1.31-2.2,2.23-4.67A13.86,13.86,0,0,1,72.58,128.22Z"/><path id="_Path_64" data-name="&lt;Path&gt;" class="cls-73" d="M72.14,115.81c-.4-2.23,5.06-1.54,5.53-.06S72.45,117.54,72.14,115.81Z"/></g><path id="_Path_65" data-name="&lt;Path&gt;" class="cls-74" d="M75.75,133.89c.5,6.62,5,12.6,9.62,16.85,4.15,3.77,15,10.35,15,10.35a44.88,44.88,0,0,0,2.26-12.53,15.76,15.76,0,0,0-4.47-11.23c-3.47-3.82-8.1-4.62-13.12-5-3.38-.26-6.43-.23-9.39,1.55Z"/><path id="_Path_66" data-name="&lt;Path&gt;" class="cls-75" d="M102.65,148.56a15.76,15.76,0,0,0-4.47-11.23c-3.47-3.82-8.1-4.62-13.12-5-3-.23-5.75-.23-8.41,1,3.89,2.1,18.5,10.95,23.74,27.75A44.88,44.88,0,0,0,102.65,148.56Z"/><path id="_Path_67" data-name="&lt;Path&gt;" class="cls-76" d="M32.47,178a1.34,1.34,0,0,0-1.06,2.45A1.34,1.34,0,0,0,32.47,178Z"/><path id="_Path_68" data-name="&lt;Path&gt;" class="cls-76" d="M36.53,182.32a1.67,1.67,0,0,0-1.32,3.07A1.67,1.67,0,0,0,36.53,182.32Z"/><path id="_Path_69" data-name="&lt;Path&gt;" class="cls-77" d="M74.18,183.91a1.15,1.15,0,0,0,1.17-2A1.15,1.15,0,0,0,74.18,183.91Z"/><path id="_Path_70" data-name="&lt;Path&gt;" class="cls-78" d="M73.51,197.72a1.15,1.15,0,0,0-.38-2.27A1.15,1.15,0,0,0,73.51,197.72Z"/><path id="_Path_71" data-name="&lt;Path&gt;" class="cls-78" d="M78.36,195.29a1.57,1.57,0,0,0-.53-3.1A1.57,1.57,0,0,0,78.36,195.29Z"/><path id="_Path_72" data-name="&lt;Path&gt;" class="cls-78" d="M73.94,192.83a1.06,1.06,0,0,0-.35-2.09A1.06,1.06,0,0,0,73.94,192.83Z"/><path id="_Path_73" data-name="&lt;Path&gt;" class="cls-77" d="M78.77,180.71a1.44,1.44,0,0,0,1.46-2.47A1.44,1.44,0,0,0,78.77,180.71Z"/><path id="_Path_74" data-name="&lt;Path&gt;" class="cls-79" d="M59,140a1.15,1.15,0,0,0,.66-2.21A1.15,1.15,0,0,0,59,140Z"/><path id="_Path_75" data-name="&lt;Path&gt;" class="cls-79" d="M63.55,133.93a1.44,1.44,0,0,0,.82-2.75A1.44,1.44,0,0,0,63.55,133.93Z"/><path id="_Path_76" data-name="&lt;Path&gt;" class="cls-80" d="M51,148.88c-1.53-.95-7.43,5.85-5.72,6.75S52.7,149.91,51,148.88Z"/><path id="_Path_77" data-name="&lt;Path&gt;" class="cls-80" d="M54.73,145.07c-1.35-.83-3.19,1.84-1.7,2.63S56.18,146,54.73,145.07Z"/></g><path id="_Path_78" data-name="&lt;Path&gt;" class="cls-81" d="M77.21,133.19a13.87,13.87,0,0,0-1.63.66,55.69,55.69,0,0,1,24.16,24.62C95.2,144,81.51,135.54,77.21,133.19Z"/></g><g id="_Group_20" data-name="&lt;Group&gt;"><g id="_Group_21" data-name="&lt;Group&gt;"><g id="_Group_22" data-name="&lt;Group&gt;"><g id="_Group_23" data-name="&lt;Group&gt;"><path id="_Path_79" data-name="&lt;Path&gt;" class="cls-82" d="M152.29,188.72c-6.09-21.59-23.64-27.25-22.75-54.74.75-.14.24-9.23-.71-9.66s-15.06-1.06-16.55.32c-1.23,1.15-1.38,9.31-.38,9.45.9,29.07-18.3,35.24-22.74,56.68-6.37,30.72,9.53,57.26,11.06,58.71,4,3.77,34.44,5.25,41,0C142.84,248.19,160.83,219,152.29,188.72Z"/><path id="_Path_80" data-name="&lt;Path&gt;" class="cls-83" d="M114.71,136.48s-1.06,14.86-7,24.63c-3.81,6.26-14.78,19.33-16.77,31.43-3.19,19.32,6.15,29.94,6.15,29.94l20-37.37s.22-33.77,1.49-47.57Z"/><path id="_Path_81" data-name="&lt;Path&gt;" class="cls-84" d="M120.74,147.4c4.42,0,9.27,2.8,11.53,4.83A46.65,46.65,0,0,1,129.54,134c.57-.11.41-5.39-.11-8.1l-18,1.33c-.4,2.8-.26,6.78.44,6.88a49.45,49.45,0,0,1-2.47,17.85C112.41,149.67,116.57,147.4,120.74,147.4Z"/><path id="_Path_82" data-name="&lt;Path&gt;" class="cls-85" d="M111.44,123.9c1.47-3.58,17.16-3.92,18.75.12.24.61.94,15.64,1,16.64-5.56,3.58-16.85,2.85-21.16-.36C110,140.3,111.12,124.69,111.44,123.9Z"/></g><path id="_Path_83" data-name="&lt;Path&gt;" class="cls-86" d="M120.48,166.13c-10.69-.16-25.84,18.36-26.94,35.51A49.49,49.49,0,0,0,98.17,225c4.55,9.72,12.25,17.39,22.38,17.64,11.12.27,18.39-7.28,22.65-16.46A54,54,0,0,0,148,203C147.43,185.71,133.44,166.32,120.48,166.13Z"/><path id="_Path_84" data-name="&lt;Path&gt;" class="cls-87" d="M120.48,166.13c-10.69-.16-25.84,18.36-26.94,35.51a49.14,49.14,0,0,0,3.53,20.77A159.69,159.69,0,0,1,95.6,204c0-13.75,12.21-34.74,25.94-34.94,9-.13,16.42,8.51,22.57,18C138.93,175.61,129.46,166.26,120.48,166.13Z"/></g><path id="_Path_85" data-name="&lt;Path&gt;" class="cls-88" d="M154.37,210.82c-5.62,20-15.07,36.31-32.58,36.31-25,0-32.78-32.16-34.08-44.19l0,.91c-.57,24.83,11.23,44.4,12.54,45.63,4,3.77,34.44,5.25,41,0,1.17-.94,11-16.63,13-36.77C154.28,212.08,154.33,211.45,154.37,210.82Z"/><path id="_Path_86" data-name="&lt;Path&gt;" class="cls-89" d="M104.44,201.65l1.76-.42c-.42-.91-1.72-3.44-3.44-3.46-2.33,0-4.31,3.63-4.33,8.53,0,3.3,1.9,8,4.7,8,1.81,0,3.65-1.87,4.07-4.42l-1.91-.17a2.69,2.69,0,0,1-1.89,2.48c-1.58,0-2.73-3.48-2.89-6-.17-2.89.85-6.26,2.09-6.36C103.35,199.73,104,200.84,104.44,201.65Z"/><path id="_Path_87" data-name="&lt;Path&gt;" class="cls-89" d="M132.92,199.29l1.73-.42c-.42-.91-1.7-3.44-3.38-3.46-2.29,0-4.24,3.63-4.25,8.53,0,3.3,1.86,8,4.61,8,1.78,0,3.6-1.57,4.1-4.61-.63-.06-1.12-.18-1.74-.24a3.24,3.24,0,0,1-2.09,2.74c-1.56,0-2.69-3.48-2.84-6-.16-2.89.84-6.26,2.06-6.36C131.84,197.37,132.51,198.48,132.92,199.29Z"/><polygon id="_Path_88" data-name="&lt;Path&gt;" class="cls-89" points="107.31 198.04 108.83 213.64 110.43 213.47 110.18 205.79 113.64 205.46 114.39 213.64 116.33 213.38 114.9 197.28 113.47 197.45 113.38 202.93 110.01 203.43 109.42 198.04 107.31 198.04"/><path id="_Compound_Path_5" data-name="&lt;Compound Path&gt;" class="cls-89" d="M125.68,204.1c-.16-4.56-2.66-8.24-5.06-7.84s-3.56,4.74-3.45,7.84c.11,3.56,2.08,8,4.47,8.09S125.85,208.65,125.68,204.1Zm-4.25,6.06c-1.23,0-2.41-3.21-2.48-5.87s.9-5.8,2.13-5.88,2.62,2.93,2.76,5.59C124,206.88,122.68,210.16,121.43,210.16Z"/><path id="_Compound_Path_6" data-name="&lt;Compound Path&gt;" class="cls-89" d="M145.08,202.75c-.17-4.56-2.67-8.24-5.06-7.84s-3.56,4.74-3.46,7.84c.12,3.56,2.08,8,4.47,8.09S145.25,207.3,145.08,202.75Zm-4.18,6.14c-1.24,0-2.42-3.22-2.48-5.88s.9-5.8,2.12-5.87,2.63,2.92,2.76,5.59C143.45,205.61,142.14,208.89,140.9,208.89Z"/><g id="_Group_24" data-name="&lt;Group&gt;"><path id="_Path_89" data-name="&lt;Path&gt;" class="cls-89" d="M143.39,215.15c.21-.92.4-1.85.55-2.78l-10.92.79c-5,.36-10,.62-15,1.07-6.24.56-12.51,1.28-18.77,1.5.27,1.14.58,2.28.94,3.39Z"/><path id="_Path_90" data-name="&lt;Path&gt;" class="cls-90" d="M101,221.42c3.65,9.39,10.58,17,19.85,17,10.9,0,19-10.11,22.14-21.69Z"/></g><g id="_Group_25" data-name="&lt;Group&gt;"><path id="_Path_91" data-name="&lt;Path&gt;" class="cls-90" d="M140,188.59c-4.23-8.17-11-14.4-18.66-14.31-7.92.09-15,7.34-19.21,16.05Z"/><path id="_Path_92" data-name="&lt;Path&gt;" class="cls-89" d="M140.74,190.19l-39.92,3c-.39,1-.75,2-1.07,3.05,1.09-.05,2.17-.1,3.26-.17,6.13-.41,12.22-1.2,18.35-1.63,6.85-.49,13.7-1,20.55-1.46Q141.37,191.56,140.74,190.19Z"/></g><path id="_Path_93" data-name="&lt;Path&gt;" class="cls-91" d="M130.19,124a2.43,2.43,0,0,0-.75-1h0A12.21,12.21,0,0,1,123,125.6l.59,17.33a17.12,17.12,0,0,0,7.64-2.27C131.13,139.66,130.43,124.63,130.19,124Z"/><path id="_Path_94" data-name="&lt;Path&gt;" class="cls-92" d="M111.44,123.9s1.64,3.11,9.23,3.11c7.2,0,9.52-3,9.52-3C128.6,120,112.91,120.32,111.44,123.9Z"/><path id="_Path_95" data-name="&lt;Path&gt;" class="cls-24" d="M120.67,127a17.86,17.86,0,0,0,6.54-1.08c-11.45,1.57-15.77-2-15.77-2S113.08,127,120.67,127Z"/></g><polygon id="_Path_96" data-name="&lt;Path&gt;" class="cls-93" points="102.56 222.61 105.58 225.66 108 222.06 102.56 222.61"/><polygon id="_Path_97" data-name="&lt;Path&gt;" class="cls-94" points="110.33 221.72 113.15 224.81 115.77 221.17 110.33 221.72"/><polygon id="_Path_98" data-name="&lt;Path&gt;" class="cls-95" points="118.39 220.99 121.36 224.53 123.87 220.62 118.39 220.99"/><polygon id="_Path_99" data-name="&lt;Path&gt;" class="cls-96" points="126.87 220.17 129.78 223.33 132.31 219.62 126.87 220.17"/><polygon id="_Path_100" data-name="&lt;Path&gt;" class="cls-97" points="134.53 219.39 137.71 222.48 140.12 218.58 134.53 219.39"/></g><path class="cls-98" d="M96.15,242.39c26.21-30-7-51.62-7-51.62C84.63,212.57,91.33,232.27,96.15,242.39Z"/><g id="_Group_26" data-name="&lt;Group&gt;"><path id="_Path_101" data-name="&lt;Path&gt;" class="cls-99" d="M64.57,187.11c-17,.8-31.77,15.66-31.52,33.33C33.32,239,50,253.34,67.9,252.86c18.86-.51,34.95-17.37,33-36.36C99.12,198.7,84,186.2,64.57,187.11Z"/><path id="_Path_102" data-name="&lt;Path&gt;" class="cls-100" d="M36.85,220.54c.58,9.52,6.81,18.05,14.34,18.55,27.72,1.82,34.22-35.83,22.41-46.29C62.83,183.28,35.33,195.54,36.85,220.54Z"/><path id="_Path_103" data-name="&lt;Path&gt;" class="cls-101" d="M52.38,194.61s.37,13,1.8,11.57.48-8.54,1.84-9.14,5.15,8.18,6.36,7.57-3.18-8.18-2.72-9.39,6.36,1.82,7.12.46-5.46-2.43-5.46-3.49,6.82-.6,7.43-1.36-5.6-3.59-14.09-.15c-7.12,2.87-11.52,8.93-11.21,10.6S49.66,195.22,52.38,194.61Z"/><path id="_Path_104" data-name="&lt;Path&gt;" class="cls-102" d="M100.92,216.5a32.05,32.05,0,0,0-22.57-27.63c9.09,5,14.47,23.49,6.59,37.93-4.09,7.5-22.5,24.54-43.59,14.45A34.83,34.83,0,0,0,67.9,252.86C86.76,252.35,102.85,235.49,100.92,216.5Z"/><g id="_Group_27" data-name="&lt;Group&gt;"><path id="_Path_105" data-name="&lt;Path&gt;" class="cls-103" d="M52.89,191.76s-2.93,3-2.07,3.69c1.11,1,9.45-2.94,8.94-4.28-.42-1.09-4.36-.67-4.36-.67s-2.37-9-4.89-10.85c-1.84-1.35-5.82,2.56-2.84,4.32C52,186.48,52.89,191.76,52.89,191.76Z"/><path id="_Path_106" data-name="&lt;Path&gt;" class="cls-104" d="M50.82,195.45c1.11,1,9.45-2.94,8.94-4.28-.42-1.09-4.36-.67-4.36-.67s-.36-1.37-.95-3.14c-2,1.26-3.77-.61-3.77-.61a13.54,13.54,0,0,1,2.21,5S50,194.71,50.82,195.45Z"/><path id="_Path_107" data-name="&lt;Path&gt;" class="cls-105" d="M47.34,182.76c-.88-1,1.48-3.5,2.66-2.8S48,183.48,47.34,182.76Z"/></g><path id="_Path_108" data-name="&lt;Path&gt;" class="cls-106" d="M57.69,218.79a1.43,1.43,0,0,0-1.87.69,1.41,1.41,0,1,0,1.87-.69Z"/><path id="_Path_109" data-name="&lt;Path&gt;" class="cls-106" d="M57.3,211.71a1,1,0,0,0-1.37.51,1,1,0,1,0,1.37-.51Z"/><path id="_Path_110" data-name="&lt;Path&gt;" class="cls-106" d="M60.19,215.94a1,1,0,0,0-1.27.47,1,1,0,1,0,1.27-.47Z"/><path id="_Path_111" data-name="&lt;Path&gt;" class="cls-107" d="M93.48,214.89A1.52,1.52,0,1,0,95,216.41,1.53,1.53,0,0,0,93.48,214.89Z"/><path id="_Path_112" data-name="&lt;Path&gt;" class="cls-107" d="M91.75,220.35a1,1,0,1,0,1,1A1.06,1.06,0,0,0,91.75,220.35Z"/><path id="_Path_113" data-name="&lt;Path&gt;" class="cls-107" d="M95.91,220.27a.84.84,0,1,0,0,1.67.84.84,0,0,0,.83-.83A.85.85,0,0,0,95.91,220.27Z"/><path id="_Path_114" data-name="&lt;Path&gt;" class="cls-107" d="M58.29,246.51a1.26,1.26,0,1,0,1.29,1.22A1.27,1.27,0,0,0,58.29,246.51Z"/><path id="_Path_115" data-name="&lt;Path&gt;" class="cls-107" d="M54.79,246.21a.75.75,0,0,0,0,1.5.75.75,0,0,0,0-1.5Z"/></g><g id="_Group_28" data-name="&lt;Group&gt;"><g id="_Group_29" data-name="&lt;Group&gt;"><g id="_Group_30" data-name="&lt;Group&gt;"><path id="_Path_116" data-name="&lt;Path&gt;" class="cls-108" d="M163.73,208.09s7.37-17.77,8.07-17.77c1.33,0-.09,7.23-1,10.07,0,0,9.43-15.28,11.39-15,1.68.24-2.79,9.6-6.41,14.85,0,0,6.12-4.65,7.13-3.91.51.38-12.15,16.6-12.15,16.6Z"/><path id="_Path_117" data-name="&lt;Path&gt;" class="cls-109" d="M144.36,244.43a7.14,7.14,0,0,1-1.82-2c-1.47,1-3.1,2.24-3.49,4-.05.22.12.46.33.42a7.29,7.29,0,0,0,2.76-1.2c-.47,1-2,4.05-2,5.43a.33.33,0,0,0,.47.31,12,12,0,0,0,4.54-4,4.85,4.85,0,0,0,.22,2.73.4.4,0,0,0,.61.15,5.68,5.68,0,0,0,2.34-4.48A7.35,7.35,0,0,1,144.36,244.43Z"/><path id="_Compound_Path_7" data-name="&lt;Compound Path&gt;" class="cls-110" d="M175.67,244.23c3.13-4.49,3.12-10.21,1.94-15.61-1.54-7.06-3.79-13.57-1.86-21.1.16-.62-6.21.46-8.24,1.7.79-3.34-1.59-8.61-1.8-8.25-4.53,3.88-8.48,5.28-15.2,5.88-5.83.53-11.48.83-16,4.46-8.17,6.61-7,18.39,1.78,28.08,4.25,4.7,9.81,9.24,15.82,11.12C160.86,253.23,170.57,251.57,175.67,244.23Z"/><path id="_Path_118" data-name="&lt;Path&gt;" class="cls-111" d="M164.8,203.43s-3.63,4.25-18,5.27c-8.38.58-13.43,5.39-14.85,11.78-1.1,4.92.44,9.79,5.8,14.29a14.62,14.62,0,0,0,20.09-1.31C165.08,225.74,167.38,212.06,164.8,203.43Z"/><path id="_Path_119" data-name="&lt;Path&gt;" class="cls-112" d="M164.48,212c-10.12-6.54-26-3.52-30.35,6.32-3.79,8.59,2.5,19.58,10.57,24.47s21.39,5.56,27.38-2.54C178.35,231.79,173.59,217.92,164.48,212Z"/><path id="_Path_120" data-name="&lt;Path&gt;" class="cls-113" d="M172.19,217s2.65,22.41-15.2,28.26C157,245.3,170.61,239.08,172.19,217Z"/><path id="_Path_121" data-name="&lt;Path&gt;" class="cls-113" d="M166.91,222.4s-3.21,10.3-8.67,15.37A17.81,17.81,0,0,0,166.91,222.4Z"/><path id="_Path_122" data-name="&lt;Path&gt;" class="cls-114" d="M145.57,217.92s-8.81,5.22-7.58,15.17C138,233.09,138.88,225.94,145.57,217.92Z"/><path id="_Path_123" data-name="&lt;Path&gt;" class="cls-114" d="M150,219.62s-5.2,4.36-6,10.7C144,230.32,149.05,221.22,150,219.62Z"/><path id="_Path_124" data-name="&lt;Path&gt;" class="cls-115" d="M147.58,209.32c-1-.24-2.33.2-2.49.8-.12.42.37.85,1.1,1a2.31,2.31,0,0,0,2.22-.68C148.65,210,148.24,209.49,147.58,209.32Z"/><path id="_Path_125" data-name="&lt;Path&gt;" class="cls-115" d="M141,210.76c-1.69.39-3.69,1.91-3.66,2.77,0,.6,1,.78,2.28.41,1.49-.44,3.08-1.58,3.27-2.44S142.11,210.49,141,210.76Z"/></g></g><path id="_Path_126" data-name="&lt;Path&gt;" class="cls-116" d="M175.67,244.23c2.47-3.55,3-7.86,2.51-12.17-4.2,7.78-12.05,15.85-25.11,14.37a31.45,31.45,0,0,1-19-10.3,25.29,25.29,0,0,1-2.34-3.29,31.94,31.94,0,0,0,4.63,6.55c4.25,4.7,9.81,9.24,15.82,11.12C160.86,253.23,170.57,251.57,175.67,244.23Z"/></g><path class="cls-117" d="M85.27,138l-3.55-.65a20.48,20.48,0,0,1,2-5.39c2.07-3.77,5.06-5.83,8.65-6s6.66,1.89,8.67,5.82a20.41,20.41,0,0,1,1.83,5.58l-3.57.53a16.78,16.78,0,0,0-1.51-4.54c-.5-1-2-3.9-5.3-3.79-2.27.08-4.16,1.46-5.61,4.09A17.09,17.09,0,0,0,85.27,138Z"/><path class="cls-117" d="M158.41,138l-3.54-.69c.09-.45,2.23-11,11-11.32,7.12-.24,10.22,7.34,10.85,11.38l-3.56.57c0-.09-1.42-8.35-7-8.35H166C160.1,129.75,158.43,137.89,158.41,138Z"/><path class="cls-118" d="M212.28,253.25l-2.5-.33c2.86-22,4.86-40.19,6.79-57.83s3.92-35.88,6.79-57.87l2.51.32c-2.87,22-4.86,40.2-6.79,57.83S215.15,231.26,212.28,253.25Z"/><path class="cls-118" d="M48,253.88c-2.41-22.2-4.41-40.21-6.36-57.63s-3.94-35.44-6.35-57.64l2.51-.27c2.41,22.19,4.41,40.21,6.36,57.63s3.94,35.44,6.35,57.63Z"/><path class="cls-118" d="M70.09,253.61c-1.79-22.39-3.3-40.58-4.77-58.16s-3-35.78-4.77-58.17l2.52-.21c1.8,22.39,3.31,40.58,4.77,58.17s3,35.77,4.77,58.17Z"/><path class="cls-118" d="M91.24,253.81c-1.3-22.33-2.31-40.28-3.28-57.63s-2-35.29-3.29-57.63l2.52-.15c1.31,22.34,2.32,40.28,3.29,57.64s2,35.29,3.29,57.63Z"/><path class="cls-118" d="M111.54,253.78c-.63-22.28-1-40.42-1.42-58s-.79-35.69-1.42-57.95l2.52-.08c.63,22.27,1,40.42,1.43,58s.79,35.69,1.42,57.95Z"/><path class="cls-118" d="M134.45,253.31l-2.53,0c.24-21.86.4-40,.55-57.63s.32-35.78.55-57.63l2.52,0c-.23,21.85-.39,40-.54,57.63S134.68,231.46,134.45,253.31Z"/><path class="cls-118" d="M174.6,253.83l-2.52-.18c1.58-22.12,2.73-40.28,3.83-57.84s2.25-35.73,3.84-57.86l2.52.18c-1.58,22.12-2.73,40.28-3.84,57.84S176.18,231.7,174.6,253.83Z"/><path class="cls-118" d="M155.39,253.36l-2.52-.12c1-21.13,1.67-39.62,2.3-57.51s1.29-36.38,2.3-57.53l2.53.12c-1,21.13-1.67,39.62-2.3,57.5S156.4,232.21,155.39,253.36Z"/><path class="cls-118" d="M194.46,253.21,192,253c2.13-21.48,3.55-40,4.92-57.83s2.8-36.37,4.94-57.87l2.51.25c-2.13,21.47-3.55,40-4.93,57.82S196.6,231.7,194.46,253.21Z"/><path class="cls-119" d="M224.84,145.53q.49-3.92,1-8l-2.51-.32q-.56,4.25-1.06,8.31Z"/><path class="cls-119" d="M222.26,166.92q.44-3.79.9-7.71h-2.54c-.31,2.61-.62,5.18-.91,7.71Z"/><path class="cls-119" d="M212.25,233.15c-.31,2.6-.63,5.23-1,7.92h2.54c.34-2.69.66-5.32,1-7.92Z"/><path class="cls-119" d="M38.61,145.53c-.25-2.35-.51-4.74-.78-7.19l-2.51.27c.25,2.36.5,4.66.75,6.92Z"/><path class="cls-119" d="M45.77,233.15q.42,3.89.86,7.92h2.55q-.45-4-.87-7.92Z"/><path class="cls-119" d="M41,166.92q-.42-3.78-.85-7.71H37.57q.43,3.93.85,7.71Z"/><path class="cls-119" d="M63.75,145.53q-.33-4.12-.68-8.46l-2.52.21q.35,4.22.67,8.25Z"/><path class="cls-119" d="M65.5,166.92q-.31-3.78-.64-7.71H62.33q.31,3.93.63,7.71Z"/><path class="cls-119" d="M68.44,233.15q.32,3.89.64,7.92h2.54c-.22-2.69-.43-5.33-.65-7.92Z"/><path class="cls-119" d="M87.61,145.53c-.14-2.33-.28-4.7-.42-7.13l-2.52.15c.14,2.38.27,4.7.41,7Z"/><path class="cls-119" d="M88.84,166.92c-.15-2.52-.29-5.09-.44-7.71H85.87c.15,2.62.29,5.19.44,7.71Z"/><path class="cls-119" d="M90.05,233.15c.15,2.59.3,5.22.45,7.92H93c-.15-2.7-.3-5.33-.45-7.92Z"/><path class="cls-119" d="M111.44,145.53q-.1-3.79-.22-7.75l-2.52.08q.1,3.91.21,7.67Z"/><path class="cls-119" d="M111,233.15c.07,2.59.13,5.23.21,7.92h2.52q-.1-4-.2-7.92Z"/><path class="cls-119" d="M112,166.92c-.07-2.52-.13-5.09-.2-7.71h-2.52c.06,2.62.13,5.19.19,7.71Z"/><path class="cls-119" d="M135.47,145.53c0-2.44.05-4.94.07-7.48L133,138c0,2.55-.05,5.05-.08,7.5Z"/><path class="cls-119" d="M135.26,166.92q0-3.79.07-7.71H132.8c0,2.61-.05,5.18-.07,7.71Z"/><path class="cls-119" d="M132.13,233.15c0,2.6,0,5.23-.08,7.92h2.53c0-2.69,0-5.32.07-7.92Z"/><path class="cls-119" d="M181.74,145.53c.17-2.42.35-4.88.53-7.4l-2.52-.18q-.28,3.87-.54,7.58Z"/><path class="cls-119" d="M180.29,166.92q.26-3.78.52-7.71h-2.54q-.26,3.93-.51,7.71Z"/><path class="cls-119" d="M173.5,233.15q-.25,3.89-.54,7.92h2.53q.28-4,.54-7.92Z"/><path class="cls-119" d="M159.66,145.53q.17-3.56.34-7.21l-2.53-.12q-.18,3.72-.34,7.33Z"/><path class="cls-119" d="M153.76,233.15c-.1,2.61-.22,5.24-.33,7.92H156c.11-2.68.23-5.31.33-7.92Z"/><path class="cls-119" d="M158.76,166.92c.1-2.54.2-5.1.31-7.71h-2.53c-.11,2.61-.21,5.17-.31,7.71Z"/><path class="cls-119" d="M193.8,233.15q-.35,3.9-.72,7.92h2.54c.25-2.68.48-5.32.71-7.92Z"/><path class="cls-119" d="M201.64,166.92q.31-3.79.66-7.71h-2.53q-.35,3.91-.66,7.71Z"/><path class="cls-119" d="M203.54,145.53q.38-3.94.78-8l-2.51-.25c-.28,2.81-.55,5.56-.81,8.27Z"/><path class="cls-120" d="M93.08,133.88a3.44,3.44,0,0,1-.45,0,2.72,2.72,0,0,1-2.11-3.2L115.92,6.39a2.71,2.71,0,0,1,5.31,1.08L95.83,131.72A2.71,2.71,0,0,1,93.08,133.88Z"/><path class="cls-118" d="M165.51,133.71A2.71,2.71,0,0,1,163,131.9C155.92,112,150,95.22,144.2,79S132.47,46,125.42,26a2.7,2.7,0,1,1,5.1-1.8c7,19.94,13,36.74,18.79,53s11.71,33,18.75,52.91a2.7,2.7,0,0,1-1.65,3.45A2.59,2.59,0,0,1,165.51,133.71Z"/><path class="cls-121" d="M44.21,255.78c-3.51,0-5.8-.62-7.27-1.93-2.21-2-2.67-5.27-2.94-8.49-2.7-18.09-5.21-36.24-7.63-53.8s-4.93-35.72-7.64-53.82l3.22-.48c2.71,18.12,5.21,36.29,7.64,53.86s4.93,35.72,7.64,53.82v.1c.2,2.46.53,5.19,1.87,6.38,1,.93,3.47,1.27,7.23,1h.11c28.93,0,57.67-.09,85.47-.18s56.45-.18,85.34-.18a6.32,6.32,0,0,0,4.53-2.84,19.86,19.86,0,0,0,2.05-6.76l0-.16,0-.29c2.71-17.79,5.18-35.22,7.58-52.07s4.87-34.3,7.58-52.11l3.21.49c-2.7,17.8-5.18,35.22-7.58,52.08s-4.86,34.21-7.56,52a21.87,21.87,0,0,1-2.53,8.55,9.63,9.63,0,0,1-6.84,4.35l-.18,0h-.13c-28.93,0-57.68.09-85.47.18s-56.52.18-85.43.18C45.68,255.75,44.92,255.78,44.21,255.78Zm179.65-13.2v0Z"/><path class="cls-119" d="M21.9,145.47a6.7,6.7,0,0,1,1.28.12L22,137.26l-3.22.48c.41,2.68.8,5.36,1.19,8A6.66,6.66,0,0,1,21.9,145.47Z"/><path class="cls-119" d="M25,167.12a6.28,6.28,0,0,1,1.24.12c-.41-3-.83-5.92-1.25-8.9a6.67,6.67,0,0,1-3.12.8h0L23,167.45A6.56,6.56,0,0,1,25,167.12Z"/><path class="cls-119" d="M32.4,234.48c.33,2.21.65,4.43,1,6.64a6.11,6.11,0,0,1,1.28-.13,6.79,6.79,0,0,1,2,.31c-.37-2.49-.73-5-1.1-7.46A6.37,6.37,0,0,1,32.4,234.48Z"/><path class="cls-119" d="M226.18,235a5.72,5.72,0,0,1-1.25-.08l-1,6.55H224a6,6,0,0,1,3.1.72q.58-3.8,1.14-7.58A7.1,7.1,0,0,1,226.18,235Z"/><path class="cls-119" d="M235.08,167.36a6.65,6.65,0,0,1,2.77.6c.43-2.93.85-5.88,1.28-8.84l-.44,0a6.63,6.63,0,0,1-2.76-.6q-.65,4.44-1.27,8.84Z"/><path class="cls-119" d="M238.69,145.47a6.68,6.68,0,0,1,2.39.44q.57-3.76,1.14-7.56l-3.21-.49c-.39,2.56-.77,5.12-1.15,7.66A7.55,7.55,0,0,1,238.69,145.47Z"/><path class="cls-122" d="M247.35,140.57H14.45a2.71,2.71,0,1,1,0-5.41h232.9a2.71,2.71,0,1,1,0,5.41Z"/><path class="cls-123" d="M230.63,237.12H29.6a2.53,2.53,0,0,1,0-5.06h201a2.53,2.53,0,0,1,0,5.06Z"/><path class="cls-124" d="M241.82,162.41H18.42a2.53,2.53,0,1,1,0-5.06h223.4a2.53,2.53,0,0,1,0,5.06Z"/><line class="cls-125" x1="23" y1="137.26" x2="162.34" y2="137.26"/><line class="cls-126" x1="26.79" y1="158.91" x2="166.13" y2="158.91"/></g></g></svg>